<svg xmlns="http://www.w3.org/2000/svg" xmlns:xlink="http://www.w3.org/1999/xlink" version="1.0" x="0" y="0" width="2400" height="494.0541224615324" viewBox="31.0147900390625 96.38907287597657 277.970419921875 57.22184661865234" preserveAspectRatio="xMidYMid meet" color-interpolation-filters="sRGB"><g><defs><linearGradient id="92" x1="0%" y1="0%" x2="100%" y2="0%"><stop offset="0%" stop-color="#fa71cd"></stop> <stop offset="100%" stop-color="#9b59b6"></stop></linearGradient><linearGradient id="93" x1="0%" y1="0%" x2="100%" y2="0%"><stop offset="0%" stop-color="#f9d423"></stop> <stop offset="100%" stop-color="#f83600"></stop></linearGradient><linearGradient id="94" x1="0%" y1="0%" x2="100%" y2="0%"><stop offset="0%" stop-color="#0064d2"></stop> <stop offset="100%" stop-color="#1cb0f6"></stop></linearGradient><linearGradient id="95" x1="0%" y1="0%" x2="100%" y2="0%"><stop offset="0%" stop-color="#f00978"></stop> <stop offset="100%" stop-color="#3f51b1"></stop></linearGradient><linearGradient id="96" x1="0%" y1="0%" x2="100%" y2="0%"><stop offset="0%" stop-color="#7873f5"></stop> <stop offset="100%" stop-color="#ec77ab"></stop></linearGradient><linearGradient id="97" x1="0%" y1="0%" x2="100%" y2="0%"><stop offset="0%" stop-color="#f9d423"></stop> <stop offset="100%" stop-color="#e14fad"></stop></linearGradient><linearGradient id="98" x1="0%" y1="0%" x2="100%" y2="0%"><stop offset="0%" stop-color="#009efd"></stop> <stop offset="100%" stop-color="#2af598"></stop></linearGradient><linearGradient id="99" x1="0%" y1="0%" x2="100%" y2="0%"><stop offset="0%" stop-color="#ffcc00"></stop> <stop offset="100%" stop-color="#00b140"></stop></linearGradient><linearGradient id="100" x1="0%" y1="0%" x2="100%" y2="0%"><stop offset="0%" stop-color="#d51007"></stop> <stop offset="100%" stop-color="#ff8177"></stop></linearGradient><linearGradient id="102" x1="0%" y1="0%" x2="100%" y2="0%"><stop offset="0%" stop-color="#a2b6df"></stop> <stop offset="100%" stop-color="#0c3483"></stop></linearGradient><linearGradient id="103" x1="0%" y1="0%" x2="100%" y2="0%"><stop offset="0%" stop-color="#7ac5d8"></stop> <stop offset="100%" stop-color="#eea2a2"></stop></linearGradient><linearGradient id="104" x1="0%" y1="0%" x2="100%" y2="0%"><stop offset="0%" stop-color="#00ecbc"></stop> <stop offset="100%" stop-color="#007adf"></stop></linearGradient><linearGradient id="105" x1="0%" y1="0%" x2="100%" y2="0%"><stop offset="0%" stop-color="#b88746"></stop> <stop offset="100%" stop-color="#fdf5a6"></stop></linearGradient></defs><g fill="#ffffff" class="icon-text-wrapper icon-svg-group iconsvg" transform="translate(33.739990234375,99.11427688598633)"><g class="iconsvg-imagesvg" transform="translate(0,0)"><g><rect fill="#ffffff" fill-opacity="0" stroke-width="2" x="0" y="0" width="60" height="51.771446321638734" class="image-rect"></rect> <svg x="0" y="0" width="60" height="51.771446321638734" filtersec="colorsb9874464746" class="image-svg-svg primary" style="overflow: visible;"><svg xmlns="http://www.w3.org/2000/svg" viewBox="0 0 175 151"><path fill="#e69138" d="M160 24l15-24H0l58 100 29-50H60L44 25l116-1z"></path><path fill="#ffffff" d="M117 50l-14 25 28 1 14-26h-28zm-30 50l-14 25 14 26 30-51H87z"></path></svg></svg> </g></g> <g transform="translate(67,4.395723342895508)"><g fill-rule="" class="tp-name iconsvg-namesvg"><g transform="scale(1)"><g><path d="M3.43 0L3.43-38.88 16.38-38.88 16.38-21.5 28.33-21.5 28.33-13.86 16.38-13.86 16.38 0 3.43 0ZM25.22-31.11L18.43-31.11 18.43-38.88 38.17-38.88 38.17-25.99 25.22-25.99 25.22-31.11ZM60.73-7.76L60.73 0 49.25 0 41.98-7.27 41.98-42.98 54.93-42.98 54.93-7.76 60.73-7.76ZM76.73-31.11L76.73 0 71.54 0 63.78-7.76 63.78-23.35 71.54-31.11 76.73-31.11ZM97.53-12.48L78.78-12.48 78.78-17.9 85.61-17.9 85.61-23.35 78.78-23.35 78.78-31.11 89.77-31.11 97.53-23.35 97.53-12.48ZM92.31 0L78.78 0 78.78-7.27 96.18-7.27 96.18-3.9 92.31 0ZM99.58-31.11L113.06-31.11 133.77 0 120.32 0 99.58-31.11ZM124.8-16.76L118.13-26.81 120.32-31.11 133.77-31.11 124.8-16.76ZM115.17-4.37L113.06 0 99.58 0 108.22-14.82 115.17-4.37ZM169.6 0L156.94 0 156.94-23.35 138.52-23.35 138.52-27.22 142.41-31.11 161.84-31.11 169.6-23.35 169.6 0ZM141.12-18.11L154.89-18.11 154.89-12.71 148.21-12.71 148.21-7.27 154.89-7.27 154.89-3.84 151.03 0 141.12 0 135.91-5.13 135.91-12.92 141.12-18.11ZM195.97-15.79L195.97-23.35 190.46-23.35 190.46-26.75 194.79-31.11 202.65-31.11 208.95-23.85 208.95-15.79 195.97-15.79ZM188.38 0L175.43 0 175.43-31.11 188.38-31.11 188.38 0Z" transform="translate(-3.430000066757202, 42.97999954223633)"></path></g> </g></g> </g></g><defs v-gra="od"></defs></g></svg>